<svg width="2970" height="1507" viewBox="0 0 2970 1507" fill="none" xmlns="http://www.w3.org/2000/svg">
<path d="M577.006 749.401C577.006 749.401 376.773 604.996 188.887 505.622C-39.7983 384.669 33.7458 292.568 72.3168 239.469C113.732 404.226 421.249 566.928 630.072 718.311L719.665 788.343L809.258 858.375C904.275 931.919 986.78 1029.48 1010.22 1127.32C1033.11 1222.87 985.515 1233.61 943.117 1233.61C976.209 1104.24 823.215 956.613 758.259 899.173L577.006 749.401Z" fill="url(#paint0_linear_172_1296)"/>
<path d="M1126.76 1023.35C1198.41 1149.59 1118.04 1227.17 1047.8 1227.17C1096.57 1044.68 892.119 873.941 837.277 832.565L655.382 700.223C508.832 597.155 470.18 577.554 332.216 471.266C173.561 349.037 56.2925 209.835 86.3633 107.071C108.522 31.3468 165.276 -9.41901 273.177 1.85377C225.937 89.8925 398.246 407.137 738.052 643.32L911.176 775.831C924.865 789.124 1054.16 895.441 1126.76 1023.35Z" fill="url(#paint1_linear_172_1296)"/>
<path d="M1107.19 492.198C1155.17 279.822 986.613 283.043 962.456 351.755C1078.95 716.255 93.6197 933.373 13.7191 1255.86C-50.5236 1515.14 190.573 1525.16 266.942 1494.69C43.6711 1082.37 1045.51 765.204 1107.19 492.198Z" fill="url(#paint2_linear_172_1296)"/>
<circle cx="759.706" cy="415.368" r="87.1299" fill="url(#paint3_linear_172_1296)"/>
<mask id="mask0_172_1296" style="mask-type:alpha" maskUnits="userSpaceOnUse" x="0" y="1" width="1152" height="1507">
<path d="M964.704 344.349C964.622 344.208 964.569 344.027 964.547 343.805C964.6 343.986 964.652 344.168 964.704 344.349C969.23 352.073 1063.69 243.089 1112.18 402.319C1208.8 719.579 34.2987 1055.09 258.862 1498.65C182.494 1529.12 -93.5201 1485.48 34.2994 1211.74C173.8 912.984 1068.32 704.221 964.704 344.349Z" fill="url(#paint4_linear_172_1296)"/>
<path d="M964.547 343.805C965.757 356.152 1062.8 240.174 1112.18 402.319C1208.8 719.579 34.2987 1055.09 258.862 1498.65C182.494 1529.12 -93.5201 1485.48 34.2995 1211.74C173.87 912.834 1069.23 704.011 964.547 343.805Z" stroke="#001948" stroke-opacity="0.13"/>
<path d="M1120.8 1025.33C1181.94 1142.55 1148.2 1195.8 1048.89 1230.16C1095.59 1047.64 887.288 861.595 836.29 835.828L910.371 778.925C927.745 781.648 1059.67 908.097 1120.8 1025.33Z" fill="url(#paint5_linear_172_1296)"/>
<path d="M278.535 429.393C91.9998 278 -54.8292 18.7897 270.483 1.01172C236.663 60.0618 307.053 193.499 395.577 316.431C496.049 455.954 660.75 590.439 735.905 641.437L655.919 700.487C514.74 596.344 410.889 536.812 278.535 429.393Z" fill="url(#paint6_linear_172_1296)"/>
<path d="M236.127 532.526C15.2129 399.455 -9.19885 366.649 71.3236 236.676C102.459 412.278 566.808 661.899 629.615 718.202L583 759C423.028 632.311 372.479 614.659 236.127 532.526Z" fill="url(#paint7_linear_172_1296)"/>
<path d="M1005 1102.5C1046.68 1236.25 977.666 1230.93 940.971 1230.93C974.889 1095.25 806.351 942.019 757.5 898L806.766 855.691C892.12 919.036 981.916 1028.42 1005 1102.5Z" fill="url(#paint8_linear_172_1296)"/>
<circle cx="759.706" cy="415.368" r="87.1299" fill="url(#paint9_linear_172_1296)"/>
</mask>
<g mask="url(#mask0_172_1296)">
<path d="M635.197 439.684C635.197 439.684 570.294 409.949 390.403 448.126C327.926 466.788 99.4655 570.512 -51.2238 464.715C-171.775 380.078 -210.109 246.044 -210.302 188.44" stroke="#001948" stroke-opacity="0.15"/>
<path d="M845.432 373.867C771.136 391.904 700.669 378.161 674.723 369.035L667.208 469.42C730.731 480.693 855.416 485.74 854.558 450.095C853.699 414.45 848.116 384.424 845.432 373.867Z" fill="#F5F5F5" fill-opacity="0.09"/>
<path d="M667.74 469.007L675.173 369.721C701.618 378.851 771.417 392.218 845.068 374.469C847.786 385.399 853.212 415.027 854.058 450.107C854.161 454.396 852.384 458.085 849.017 461.258C845.637 464.441 840.662 467.095 834.415 469.265C821.923 473.605 804.49 475.961 785.003 476.852C746.223 478.627 699.464 474.597 667.74 469.007Z" stroke="#001948" stroke-opacity="0.15"/>
<path d="M-31.6969 1222.78C84.5689 1150.64 394.145 1204.86 507.236 1238.71C156.484 1208.27 20.7767 1325.44 256.908 1375.42C407.393 1401.58 487.973 1462.82 -31.6969 1496.36C66.9173 1470.2 281.148 1457.25 84.107 1402.83C-147.501 1338.87 -127.724 1282.36 -31.6969 1222.78Z" fill="#F5F5F5" fill-opacity="0.07" stroke="#001948" stroke-opacity="0.15"/>
<path d="M1129.64 1164.46C1124.01 1113.61 1273.59 882.962 1129.65 889.75C1042.97 936.237 892.866 1295.37 701.556 906.174" stroke="#001948" stroke-opacity="0.15"/>
<path d="M623.189 496.263C680.622 309.987 85.5186 448.641 -28.3158 363.943L-138.348 278.944L-244.304 185.445C47.9413 338.593 372.79 172.819 654.325 413.593C923.648 712.439 60.805 797.438 623.189 937.686C1073.1 1049.89 863.684 378.163 962.995 413.593L1561.03 712.439C558.52 1171.43 192.146 1107.68 212.523 937.686C232.899 767.688 623.189 578.934 623.189 496.263Z" fill="#F5F5F5" fill-opacity="0.07"/>
<path d="M606.77 532.306C617.47 518.915 623.659 506.834 623.689 496.339C630.877 472.969 627.856 454.606 616.749 440.264C605.655 425.94 586.555 415.705 561.77 408.434C512.197 393.891 439.565 391.116 361.66 391.511C332.545 391.659 302.695 392.25 273.025 392.837C223.262 393.822 174.009 394.797 129.595 393.655C94.1541 392.744 61.822 390.486 34.8023 385.813C7.77264 381.139 -13.88 374.059 -28.0133 363.545C-28.0146 363.544 -28.016 363.543 -28.0174 363.542L-138.029 278.559L-240.916 187.768C-113.439 253.369 20.1711 259.016 153.511 264.652C172.019 265.434 190.521 266.217 209.001 267.159C361.905 274.954 513.347 293.697 653.975 413.952C687.579 451.247 703.483 485.159 706.748 516.214C710.014 547.271 700.646 575.54 683.577 601.562C650.793 651.541 589.679 693.125 535.393 730.061C533.108 731.616 530.836 733.162 528.578 734.701C500.648 753.73 474.967 771.547 456.572 788.659C438.201 805.748 426.954 822.261 428.173 838.692C429.395 855.148 443.091 871.255 473.873 887.599C504.683 903.958 552.759 920.638 623.068 938.172C735.655 966.249 807.131 945.308 852.482 898.496C897.791 851.728 916.911 779.244 925.063 704.482C930.944 650.548 931.123 595.349 931.277 547.681C931.336 529.271 931.392 511.983 931.772 496.326C932.453 468.199 934.179 445.373 938.811 430.693C941.128 423.35 944.148 418.129 948.051 415.277C951.912 412.456 956.721 411.893 962.799 414.054L1559.87 712.419C1059.15 941.599 717.289 1040.27 503.147 1060.44C396 1070.53 320.894 1060.96 273.87 1038.31C250.365 1026.98 233.894 1012.4 223.929 995.389C213.965 978.38 210.483 958.902 213.019 937.746C218.094 895.408 246.216 851.834 285.654 808.96C325.08 766.098 375.749 724.004 425.806 684.62C441.283 672.443 456.702 660.525 471.712 648.923C505.235 623.011 536.714 598.679 562.215 576.584C580.677 560.589 596.029 545.747 606.77 532.306Z" stroke="#001948" stroke-opacity="0.15"/>
</g>
<path d="M1211.24 942V880.4H1220.04V942H1211.24ZM1238.48 942V880.4H1245.7L1286.44 931H1282.66V880.4H1291.46V942H1284.24L1243.5 891.4H1247.28V942H1238.48ZM1327.85 942.704C1323.15 942.704 1318.67 942 1314.38 940.592C1310.1 939.125 1306.73 937.248 1304.26 934.96L1307.52 928.096C1309.87 930.149 1312.86 931.851 1316.5 933.2C1320.13 934.549 1323.92 935.224 1327.85 935.224C1331.43 935.224 1334.33 934.813 1336.56 933.992C1338.79 933.171 1340.43 932.056 1341.49 930.648C1342.54 929.181 1343.07 927.539 1343.07 925.72C1343.07 923.608 1342.37 921.907 1340.96 920.616C1339.61 919.325 1337.82 918.299 1335.59 917.536C1333.42 916.715 1331.02 916.011 1328.38 915.424C1325.74 914.837 1323.07 914.163 1320.37 913.4C1317.73 912.579 1315.29 911.552 1313.06 910.32C1310.89 909.088 1309.13 907.445 1307.78 905.392C1306.43 903.28 1305.76 900.581 1305.76 897.296C1305.76 894.128 1306.58 891.224 1308.22 888.584C1309.93 885.885 1312.51 883.744 1315.97 882.16C1319.49 880.517 1323.95 879.696 1329.34 879.696C1332.92 879.696 1336.47 880.165 1339.99 881.104C1343.51 882.043 1346.56 883.392 1349.14 885.152L1346.24 892.192C1343.6 890.432 1340.81 889.171 1337.88 888.408C1334.95 887.587 1332.1 887.176 1329.34 887.176C1325.88 887.176 1323.04 887.616 1320.81 888.496C1318.58 889.376 1316.94 890.549 1315.88 892.016C1314.88 893.483 1314.38 895.125 1314.38 896.944C1314.38 899.115 1315.06 900.845 1316.41 902.136C1317.82 903.427 1319.61 904.453 1321.78 905.216C1324.01 905.979 1326.44 906.683 1329.08 907.328C1331.72 907.915 1334.36 908.589 1337 909.352C1339.7 910.115 1342.13 911.112 1344.3 912.344C1346.53 913.576 1348.32 915.219 1349.67 917.272C1351.02 919.325 1351.7 921.965 1351.7 925.192C1351.7 928.301 1350.85 931.205 1349.14 933.904C1347.44 936.544 1344.8 938.685 1341.22 940.328C1337.7 941.912 1333.25 942.704 1327.85 942.704ZM1364.55 942V880.4H1388.58C1393.97 880.4 1398.58 881.251 1402.39 882.952C1406.21 884.653 1409.14 887.117 1411.19 890.344C1413.25 893.571 1414.27 897.413 1414.27 901.872C1414.27 906.331 1413.25 910.173 1411.19 913.4C1409.14 916.568 1406.21 919.032 1402.39 920.792C1398.58 922.493 1393.97 923.344 1388.58 923.344H1369.39L1373.35 919.208V942H1364.55ZM1373.35 920.088L1369.39 915.688H1388.31C1393.94 915.688 1398.2 914.485 1401.07 912.08C1404.01 909.675 1405.47 906.272 1405.47 901.872C1405.47 897.472 1404.01 894.069 1401.07 891.664C1398.2 889.259 1393.94 888.056 1388.31 888.056H1369.39L1373.35 883.656V920.088ZM1427.2 942V880.4H1436V942H1427.2ZM1454.44 942V880.4H1478.47C1483.86 880.4 1488.47 881.251 1492.28 882.952C1496.1 884.653 1499.03 887.117 1501.08 890.344C1503.14 893.571 1504.16 897.413 1504.16 901.872C1504.16 906.331 1503.14 910.173 1501.08 913.4C1499.03 916.568 1496.1 919.003 1492.28 920.704C1488.47 922.405 1483.86 923.256 1478.47 923.256H1459.28L1463.24 919.208V942H1454.44ZM1495.63 942L1479.96 919.648H1489.38L1505.22 942H1495.63ZM1463.24 920.088L1459.28 915.776H1478.2C1483.84 915.776 1488.09 914.573 1490.96 912.168C1493.9 909.704 1495.36 906.272 1495.36 901.872C1495.36 897.472 1493.9 894.069 1490.96 891.664C1488.09 889.259 1483.84 888.056 1478.2 888.056H1459.28L1463.24 883.656V920.088ZM1526.39 906.976H1558.07V914.456H1526.39V906.976ZM1527.18 934.344H1563.08V942H1518.38V880.4H1561.85V888.056H1527.18V934.344ZM1790.03 942V880.4H1798.83V942H1790.03ZM1817.27 942V880.4H1824.49L1865.23 931H1861.45V880.4H1870.25V942H1863.03L1822.29 891.4H1826.07V942H1817.27ZM1888.69 942V880.4H1895.9L1936.65 931H1932.86V880.4H1941.66V942H1934.45L1893.7 891.4H1897.49V942H1888.69ZM1987.91 942.704C1983.21 942.704 1978.84 941.912 1974.8 940.328C1970.81 938.744 1967.34 936.544 1964.41 933.728C1961.48 930.853 1959.19 927.509 1957.55 923.696C1955.9 919.883 1955.08 915.717 1955.08 911.2C1955.08 906.683 1955.9 902.517 1957.55 898.704C1959.19 894.891 1961.48 891.576 1964.41 888.76C1967.34 885.885 1970.81 883.656 1974.8 882.072C1978.78 880.488 1983.16 879.696 1987.91 879.696C1992.6 879.696 1996.91 880.488 2000.84 882.072C2004.83 883.597 2008.29 885.797 2011.23 888.672C2014.22 891.488 2016.51 894.803 2018.09 898.616C2019.73 902.429 2020.56 906.624 2020.56 911.2C2020.56 915.776 2019.73 919.971 2018.09 923.784C2016.51 927.597 2014.22 930.941 2011.23 933.816C2008.29 936.632 2004.83 938.832 2000.84 940.416C1996.91 941.941 1992.6 942.704 1987.91 942.704ZM1987.91 934.872C1991.31 934.872 1994.45 934.285 1997.32 933.112C2000.26 931.939 2002.78 930.296 2004.89 928.184C2007.06 926.013 2008.73 923.491 2009.91 920.616C2011.14 917.741 2011.76 914.603 2011.76 911.2C2011.76 907.797 2011.14 904.659 2009.91 901.784C2008.73 898.909 2007.06 896.416 2004.89 894.304C2002.78 892.133 2000.26 890.461 1997.32 889.288C1994.45 888.115 1991.31 887.528 1987.91 887.528C1984.45 887.528 1981.25 888.115 1978.32 889.288C1975.44 890.461 1972.92 892.133 1970.75 894.304C1968.58 896.416 1966.88 898.909 1965.64 901.784C1964.47 904.659 1963.88 907.797 1963.88 911.2C1963.88 914.603 1964.47 917.741 1965.64 920.616C1966.88 923.491 1968.58 926.013 1970.75 928.184C1972.92 930.296 1975.44 931.939 1978.32 933.112C1981.25 934.285 1984.45 934.872 1987.91 934.872ZM2049.81 942L2022.7 880.4H2032.21L2057.11 937.248H2051.65L2076.73 880.4H2085.53L2058.52 942H2049.81ZM2082.08 942L2109.98 880.4H2118.69L2146.68 942H2137.44L2112.53 885.328H2116.05L2091.15 942H2082.08ZM2093.96 926.6L2096.34 919.56H2131.01L2133.56 926.6H2093.96ZM2165 942V888.056H2143.88V880.4H2194.84V888.056H2173.72V942H2165ZM2212.43 906.976H2244.11V914.456H2212.43V906.976ZM2213.22 934.344H2249.12V942H2204.42V880.4H2247.89V888.056H2213.22V934.344ZM2507.71 906.976H2539.39V914.456H2507.71V906.976ZM2508.5 934.344H2544.4V942H2499.7V880.4H2543.17V888.056H2508.5V934.344ZM2558.65 942V880.4H2565.87L2606.61 931H2602.83V880.4H2611.63V942H2604.41L2563.67 891.4H2567.45V942H2558.65ZM2657.88 942.704C2653.12 942.704 2648.75 941.941 2644.76 940.416C2640.77 938.832 2637.31 936.632 2634.38 933.816C2631.45 930.941 2629.16 927.597 2627.52 923.784C2625.87 919.971 2625.05 915.776 2625.05 911.2C2625.05 906.624 2625.87 902.429 2627.52 898.616C2629.16 894.803 2631.45 891.488 2634.38 888.672C2637.37 885.797 2640.86 883.597 2644.85 882.072C2648.84 880.488 2653.24 879.696 2658.05 879.696C2662.92 879.696 2667.38 880.488 2671.43 882.072C2675.48 883.656 2678.91 886.032 2681.72 889.2L2676.27 894.656C2673.75 892.192 2670.99 890.403 2668 889.288C2665.06 888.115 2661.87 887.528 2658.4 887.528C2654.88 887.528 2651.6 888.115 2648.55 889.288C2645.56 890.461 2642.95 892.104 2640.72 894.216C2638.55 896.328 2636.84 898.851 2635.61 901.784C2634.44 904.659 2633.85 907.797 2633.85 911.2C2633.85 914.544 2634.44 917.683 2635.61 920.616C2636.84 923.491 2638.55 926.013 2640.72 928.184C2642.95 930.296 2645.56 931.939 2648.55 933.112C2651.54 934.285 2654.8 934.872 2658.32 934.872C2661.6 934.872 2664.74 934.373 2667.73 933.376C2670.78 932.32 2673.6 930.589 2676.18 928.184L2681.2 934.872C2678.15 937.453 2674.57 939.419 2670.46 940.768C2666.41 942.059 2662.22 942.704 2657.88 942.704ZM2672.75 933.728V910.848H2681.2V934.872L2672.75 933.728ZM2698.04 942V880.4H2706.84V942H2698.04ZM2725.29 942V880.4H2732.5L2773.25 931H2769.46V880.4H2778.26V942H2771.05L2730.3 891.4H2734.09V942H2725.29ZM2804.71 906.976H2836.39V914.456H2804.71V906.976ZM2805.5 934.344H2841.4V942H2796.7V880.4H2840.17V888.056H2805.5V934.344ZM2863.66 906.976H2895.34V914.456H2863.66V906.976ZM2864.45 934.344H2900.36V942H2855.65V880.4H2899.13V888.056H2864.45V934.344ZM2914.61 942V880.4H2938.63C2944.03 880.4 2948.63 881.251 2952.45 882.952C2956.26 884.653 2959.19 887.117 2961.25 890.344C2963.3 893.571 2964.33 897.413 2964.33 901.872C2964.33 906.331 2963.3 910.173 2961.25 913.4C2959.19 916.568 2956.26 919.003 2952.45 920.704C2948.63 922.405 2944.03 923.256 2938.63 923.256H2919.45L2923.41 919.208V942H2914.61ZM2955.79 942L2940.13 919.648H2949.54L2965.38 942H2955.79ZM2923.41 920.088L2919.45 915.776H2938.37C2944 915.776 2948.25 914.573 2951.13 912.168C2954.06 909.704 2955.53 906.272 2955.53 901.872C2955.53 897.472 2954.06 894.069 2951.13 891.664C2948.25 889.259 2944 888.056 2938.37 888.056H2919.45L2923.41 883.656V920.088Z" fill="url(#paint10_linear_172_1296)"/>
<path d="M1663 871H1672V938H1663V871Z" fill="#FC6AFF"/>
<rect x="2364" y="871" width="9" height="67" fill="#339DDC"/>
<path d="M1231.87 693.722H1323.2V727.868H1231.87V693.722ZM1235.12 771.77H1338.38V807H1191.49V617.3H1334.85V652.53H1235.12V771.77ZM1363.32 807L1444.89 694.535V726.513L1366.85 617.3H1416.71L1470.64 693.451L1449.77 693.722L1502.89 617.3H1550.58L1473.08 724.616V693.18L1555.19 807H1504.51L1448.69 726.513H1468.74L1413.73 807H1363.32ZM1675.92 810.252C1661.28 810.252 1647.64 807.903 1635 803.206C1622.53 798.328 1611.69 791.463 1602.48 782.61C1593.26 773.757 1586.03 763.369 1580.8 751.445C1575.74 739.521 1573.21 726.423 1573.21 712.15C1573.21 697.877 1575.74 684.779 1580.8 672.855C1586.03 660.931 1593.26 650.543 1602.48 641.69C1611.87 632.837 1622.8 626.062 1635.27 621.365C1647.73 616.487 1661.37 614.048 1676.19 614.048C1692.63 614.048 1707.44 616.939 1720.63 622.72C1734 628.321 1745.2 636.631 1754.24 647.652L1726.05 673.668C1719.55 666.261 1712.32 660.75 1704.37 657.137C1696.42 653.343 1687.75 651.446 1678.36 651.446C1669.5 651.446 1661.37 652.891 1653.97 655.782C1646.56 658.673 1640.14 662.828 1634.72 668.248C1629.3 673.668 1625.06 680.082 1621.99 687.489C1619.1 694.896 1617.65 703.117 1617.65 712.15C1617.65 721.183 1619.1 729.404 1621.99 736.811C1625.06 744.218 1629.3 750.632 1634.72 756.052C1640.14 761.472 1646.56 765.627 1653.97 768.518C1661.37 771.409 1669.5 772.854 1678.36 772.854C1687.75 772.854 1696.42 771.047 1704.37 767.434C1712.32 763.64 1719.55 757.949 1726.05 750.361L1754.24 776.377C1745.2 787.398 1734 795.799 1720.63 801.58C1707.44 807.361 1692.54 810.252 1675.92 810.252ZM1837.81 693.722H1929.14V727.868H1837.81V693.722ZM1841.06 771.77H1944.31V807H1797.43V617.3H1940.79V652.53H1841.06V771.77ZM1992.8 807V617.3H2036.7V771.228H2131.82V807H1992.8ZM2246.65 807V778.545L2319.82 709.44C2325.6 704.201 2329.84 699.503 2332.55 695.348C2335.26 691.193 2337.07 687.399 2337.97 683.966C2339.06 680.533 2339.6 677.372 2339.6 674.481C2339.6 666.893 2336.98 661.112 2331.74 657.137C2326.68 652.982 2319.18 650.904 2309.25 650.904C2301.3 650.904 2293.89 652.44 2287.03 655.511C2280.34 658.582 2274.65 663.37 2269.95 669.874L2237.97 649.278C2245.2 638.438 2255.32 629.856 2268.33 623.533C2281.33 617.21 2296.33 614.048 2313.31 614.048C2327.4 614.048 2339.69 616.397 2350.17 621.094C2360.83 625.611 2369.05 632.024 2374.83 640.335C2380.79 648.646 2383.77 658.582 2383.77 670.145C2383.77 676.288 2382.96 682.43 2381.33 688.573C2379.89 694.535 2376.82 700.858 2372.12 707.543C2367.6 714.228 2360.92 721.725 2352.07 730.036L2291.36 787.217L2282.96 771.228H2390.01V807H2246.65ZM2502.97 810.252C2487.43 810.252 2473.52 806.458 2461.24 798.87C2448.95 791.101 2439.28 779.9 2432.24 765.266C2425.19 750.632 2421.67 732.927 2421.67 712.15C2421.67 691.373 2425.19 673.668 2432.24 659.034C2439.28 644.4 2448.95 633.289 2461.24 625.701C2473.52 617.932 2487.43 614.048 2502.97 614.048C2518.69 614.048 2532.6 617.932 2544.7 625.701C2556.99 633.289 2566.65 644.4 2573.7 659.034C2580.75 673.668 2584.27 691.373 2584.27 712.15C2584.27 732.927 2580.75 750.632 2573.7 765.266C2566.65 779.9 2556.99 791.101 2544.7 798.87C2532.6 806.458 2518.69 810.252 2502.97 810.252ZM2502.97 773.125C2510.38 773.125 2516.79 771.047 2522.21 766.892C2527.81 762.737 2532.15 756.142 2535.22 747.109C2538.47 738.076 2540.1 726.423 2540.1 712.15C2540.1 697.877 2538.47 686.224 2535.22 677.191C2532.15 668.158 2527.81 661.563 2522.21 657.408C2516.79 653.253 2510.38 651.175 2502.97 651.175C2495.74 651.175 2489.33 653.253 2483.73 657.408C2478.31 661.563 2473.97 668.158 2470.72 677.191C2467.65 686.224 2466.11 697.877 2466.11 712.15C2466.11 726.423 2467.65 738.076 2470.72 747.109C2473.97 756.142 2478.31 762.737 2483.73 766.892C2489.33 771.047 2495.74 773.125 2502.97 773.125ZM2616.47 807V778.545L2689.64 709.44C2695.42 704.201 2699.66 699.503 2702.37 695.348C2705.08 691.193 2706.89 687.399 2707.79 683.966C2708.88 680.533 2709.42 677.372 2709.42 674.481C2709.42 666.893 2706.8 661.112 2701.56 657.137C2696.5 652.982 2689 650.904 2679.07 650.904C2671.12 650.904 2663.71 652.44 2656.85 655.511C2650.16 658.582 2644.47 663.37 2639.77 669.874L2607.79 649.278C2615.02 638.438 2625.14 629.856 2638.15 623.533C2651.15 617.21 2666.15 614.048 2683.13 614.048C2697.22 614.048 2709.51 616.397 2719.99 621.094C2730.65 625.611 2738.87 632.024 2744.65 640.335C2750.61 648.646 2753.59 658.582 2753.59 670.145C2753.59 676.288 2752.78 682.43 2751.15 688.573C2749.71 694.535 2746.64 700.858 2741.94 707.543C2737.42 714.228 2730.74 721.725 2721.89 730.036L2661.18 787.217L2652.78 771.228H2759.83V807H2616.47ZM2786.68 767.163V737.624L2876.11 617.3H2922.18L2834.64 737.624L2813.23 731.391H2962.55V767.163H2786.68ZM2888.84 807V767.163L2890.2 731.391V695.89H2931.66V807H2888.84Z" fill="url(#paint11_linear_172_1296)"/>
<defs>
<linearGradient id="paint0_linear_172_1296" x1="966.495" y1="1214.17" x2="111.505" y2="396.326" gradientUnits="userSpaceOnUse">
<stop stop-color="#339DDC"/>
<stop offset="0.332112" stop-color="#2C1B77"/>
<stop offset="0.407749"/>
<stop offset="0.482841" stop-color="#2C1B77"/>
<stop offset="1" stop-color="#AD59AE"/>
</linearGradient>
<linearGradient id="paint1_linear_172_1296" x1="1196.5" y1="1145.46" x2="181.932" y2="146.582" gradientUnits="userSpaceOnUse">
<stop stop-color="#339DDC"/>
<stop offset="0.341434" stop-color="#2C1B77"/>
<stop offset="0.399755"/>
<stop offset="0.473739" stop-color="#2C1B77"/>
<stop offset="1" stop-color="#FD95FF"/>
</linearGradient>
<linearGradient id="paint2_linear_172_1296" x1="117.503" y1="1560.24" x2="1039.76" y2="309.985" gradientUnits="userSpaceOnUse">
<stop stop-color="#26A8F5"/>
<stop offset="0.984416" stop-color="#AD59AE"/>
</linearGradient>
<linearGradient id="paint3_linear_172_1296" x1="689.75" y1="351.986" x2="815.907" y2="502.168" gradientUnits="userSpaceOnUse">
<stop stop-color="#FD95FF"/>
<stop offset="1" stop-color="#339DDC"/>
</linearGradient>
<linearGradient id="paint4_linear_172_1296" x1="1188.22" y1="842.017" x2="23.9044" y2="842.017" gradientUnits="userSpaceOnUse">
<stop stop-color="#C630C9"/>
<stop offset="1" stop-color="#339DDC"/>
</linearGradient>
<linearGradient id="paint5_linear_172_1296" x1="1116.15" y1="669.316" x2="168.748" y2="669.316" gradientUnits="userSpaceOnUse">
<stop stop-color="#F16BF3"/>
<stop offset="0.38" stop-color="#002873"/>
<stop offset="1" stop-color="#3696CF"/>
</linearGradient>
<linearGradient id="paint6_linear_172_1296" x1="1116.15" y1="669.316" x2="168.748" y2="669.316" gradientUnits="userSpaceOnUse">
<stop stop-color="#F16BF3"/>
<stop offset="0.38" stop-color="#002873"/>
<stop offset="1" stop-color="#3696CF"/>
</linearGradient>
<linearGradient id="paint7_linear_172_1296" x1="1100.9" y1="1174.27" x2="197.436" y2="190.814" gradientUnits="userSpaceOnUse">
<stop stop-color="#3C61A7"/>
<stop offset="0.414057" stop-color="#2C1B77"/>
<stop offset="1" stop-color="#AE26B0"/>
</linearGradient>
<linearGradient id="paint8_linear_172_1296" x1="1100.9" y1="1174.27" x2="197.436" y2="190.814" gradientUnits="userSpaceOnUse">
<stop stop-color="#3C61A7"/>
<stop offset="0.414057" stop-color="#2C1B77"/>
<stop offset="1" stop-color="#AE26B0"/>
</linearGradient>
<linearGradient id="paint9_linear_172_1296" x1="759.706" y1="328.238" x2="759.706" y2="502.498" gradientUnits="userSpaceOnUse">
<stop stop-color="#F16BF3"/>
<stop offset="1" stop-color="#339DDC"/>
</linearGradient>
<linearGradient id="paint10_linear_172_1296" x1="1202" y1="910.5" x2="2970" y2="910.5" gradientUnits="userSpaceOnUse">
<stop stop-color="#AD59AE"/>
<stop offset="1" stop-color="#26A8F5"/>
</linearGradient>
<linearGradient id="paint11_linear_172_1296" x1="1169" y1="710" x2="2966" y2="710" gradientUnits="userSpaceOnUse">
<stop stop-color="#AD59AE"/>
<stop offset="1" stop-color="#26A8F5"/>
</linearGradient>
</defs>
</svg>
